<mxfile host="65bd71144e">
    <diagram id="PrJQCaTu_yAzedFQ9jLN" name="Page-1">
        <mxGraphModel dx="930" dy="396" grid="1" gridSize="10" guides="1" tooltips="1" connect="1" arrows="1" fold="1" page="1" pageScale="1" pageWidth="850" pageHeight="1100" math="0" shadow="0">
            <root>
                <mxCell id="0"/>
                <mxCell id="1" parent="0"/>
                <mxCell id="2" value="requirement" style="html=1;outlineConnect=0;whiteSpace=wrap;fillColor=#CCCCFF;shape=mxgraph.archimate3.application;appType=requirement;archiType=oct;" vertex="1" parent="1">
                    <mxGeometry x="40" y="40" width="160" height="75" as="geometry"/>
                </mxCell>
                <mxCell id="3" value="Design" style="html=1;outlineConnect=0;whiteSpace=wrap;fillColor=#CCCCFF;shape=mxgraph.archimate3.application;appType=requirement;archiType=oct;" vertex="1" parent="1">
                    <mxGeometry x="160" y="140" width="150" height="75" as="geometry"/>
                </mxCell>
                <mxCell id="4" value="Design" style="html=1;outlineConnect=0;whiteSpace=wrap;fillColor=#CCCCFF;shape=mxgraph.archimate3.application;appType=requirement;archiType=oct;" vertex="1" parent="1">
                    <mxGeometry x="280" y="240" width="150" height="75" as="geometry"/>
                </mxCell>
                <mxCell id="5" value="Design" style="html=1;outlineConnect=0;whiteSpace=wrap;fillColor=#CCCCFF;shape=mxgraph.archimate3.application;appType=requirement;archiType=oct;" vertex="1" parent="1">
                    <mxGeometry x="400" y="340" width="150" height="75" as="geometry"/>
                </mxCell>
            </root>
        </mxGraphModel>
    </diagram>
</mxfile>